<svg width="24" height="24" viewBox="0 0 24 24" fill="none" xmlns="http://www.w3.org/2000/svg">
  <!-- transparent canvas, no background -->
  <g transform="translate(2,2)">
    <path d="M19.6 8.2c0-.6-.1-1.2-.2-1.8H10v3.4h5.4c-.2 1-.8 2-1.7 2.6v2.2h2.8c1.7-1.6 2.6-4 2.6-6.4z" fill="#4285F4"/>
    <path d="M10 20c2.4 0 4.5-.8 6-2.2l-2.8-2.2c-.8.6-1.9 1-3.2 1-2.5 0-4.6-1.7-5.4-4H1.7v2.4C3.2 18.6 6.4 20 10 20z" fill="#34A853"/>
    <path d="M4.6 12.6c-.2-.6-.4-1.2-.4-1.9s.1-1.3.4-1.9V6.4H1.7C1 7.7.6 9.1.6 10.6s.4 2.9 1.1 4.2l2.9-2.2z" fill="#FBBC05"/>
    <path d="M10 4c1.3 0 2.5.4 3.5 1.2l2.6-2.6C14.5 1.1 12.4.3 10 .3 6.4.3 3.2 1.7 1.7 4.6l2.9 2.2C5.4 5.7 7.5 4 10 4z" fill="#EA4335"/>
  </g>
</svg>
